<?xml version="1.0" encoding="UTF-8" standalone="no"?>
<!DOCTYPE svg PUBLIC "-//W3C//DTD SVG 1.1//EN"
 "http://www.w3.org/Graphics/SVG/1.1/DTD/svg11.dtd">
<!-- Generated by graphviz version 2.38.0 (20140413.2041)
 -->
<!-- Title: test Pages: 1 -->
<svg width="920pt" height="805pt"
 viewBox="0.00 0.00 920.37 805.13" xmlns="http://www.w3.org/2000/svg" xmlns:xlink="http://www.w3.org/1999/xlink">
<g id="graph0" class="graph" transform="scale(1 1) rotate(0) translate(4 801.131)">
<title>test</title>
<polygon fill="white" stroke="none" points="-4,4 -4,-801.131 916.371,-801.131 916.371,4 -4,4"/>
<!-- 3 -->
<g id="node1" class="node"><title>3</title>
<ellipse fill="none" stroke="black" cx="598.119" cy="-572.883" rx="27" ry="18"/>
<text text-anchor="middle" x="598.119" y="-568.683" font-family="Times,serif" font-size="14.00">3</text>
</g>
<!-- 6 -->
<g id="node2" class="node"><title>6</title>
<ellipse fill="none" stroke="black" cx="650.899" cy="-621.856" rx="27" ry="18"/>
<text text-anchor="middle" x="650.899" y="-617.656" font-family="Times,serif" font-size="14.00">6</text>
</g>
<!-- 3&#45;&gt;6 -->
<g id="edge1" class="edge"><title>3&#45;&gt;6</title>
<path fill="none" stroke="black" d="M613.955,-587.576C618.234,-591.547 622.957,-595.929 627.555,-600.196"/>
<polygon fill="black" stroke="black" points="625.363,-602.937 635.074,-607.173 630.124,-597.805 625.363,-602.937"/>
</g>
<!-- 47 -->
<g id="node3" class="node"><title>47</title>
<ellipse fill="none" stroke="black" cx="492.218" cy="-645.085" rx="27" ry="18"/>
<text text-anchor="middle" x="492.218" y="-640.885" font-family="Times,serif" font-size="14.00">47</text>
</g>
<!-- 3&#45;&gt;47 -->
<g id="edge2" class="edge"><title>3&#45;&gt;47</title>
<path fill="none" stroke="black" d="M579.186,-585.791C562.648,-597.067 538.433,-613.576 519.751,-626.313"/>
<polygon fill="black" stroke="black" points="517.635,-623.52 511.344,-632.045 521.578,-629.304 517.635,-623.52"/>
</g>
<!-- 48 -->
<g id="node4" class="node"><title>48</title>
<ellipse fill="none" stroke="black" cx="545.339" cy="-523.911" rx="27" ry="18"/>
<text text-anchor="middle" x="545.339" y="-519.711" font-family="Times,serif" font-size="14.00">48</text>
</g>
<!-- 3&#45;&gt;48 -->
<g id="edge3" class="edge"><title>3&#45;&gt;48</title>
<path fill="none" stroke="black" d="M582.283,-558.19C578.004,-554.219 573.281,-549.837 568.683,-545.571"/>
<polygon fill="black" stroke="black" points="570.875,-542.83 561.164,-538.594 566.114,-547.961 570.875,-542.83"/>
</g>
<!-- 35 -->
<g id="node7" class="node"><title>35</title>
<ellipse fill="none" stroke="black" cx="207.435" cy="-151.826" rx="27" ry="18"/>
<text text-anchor="middle" x="207.435" y="-147.626" font-family="Times,serif" font-size="14.00">35</text>
</g>
<!-- 6&#45;&gt;35 -->
<g id="edge5" class="edge"><title>6&#45;&gt;35</title>
<path fill="none" stroke="black" d="M636.396,-606.484C571.322,-537.512 306.086,-256.386 228.715,-174.381"/>
<polygon fill="black" stroke="black" points="231.235,-171.952 221.827,-167.08 226.144,-176.756 231.235,-171.952"/>
</g>
<!-- 47&#45;&gt;48 -->
<g id="edge74" class="edge"><title>47&#45;&gt;48</title>
<path fill="none" stroke="black" d="M499.829,-627.724C508.665,-607.568 523.339,-574.094 533.63,-550.62"/>
<polygon fill="black" stroke="black" points="536.933,-551.804 537.742,-541.24 530.522,-548.993 536.933,-551.804"/>
</g>
<!-- 22 -->
<g id="node14" class="node"><title>22</title>
<ellipse fill="none" stroke="black" cx="567" cy="-688.763" rx="27" ry="18"/>
<text text-anchor="middle" x="567" y="-684.563" font-family="Times,serif" font-size="14.00">22</text>
</g>
<!-- 47&#45;&gt;22 -->
<g id="edge72" class="edge"><title>47&#45;&gt;22</title>
<path fill="none" stroke="black" d="M512.653,-657.02C520.402,-661.546 529.383,-666.792 537.786,-671.699"/>
<polygon fill="black" stroke="black" points="536.19,-674.821 546.59,-676.842 539.72,-668.776 536.19,-674.821"/>
</g>
<!-- 24 -->
<g id="node28" class="node"><title>24</title>
<ellipse fill="none" stroke="black" cx="99" cy="-376.993" rx="27" ry="18"/>
<text text-anchor="middle" x="99" y="-372.793" font-family="Times,serif" font-size="14.00">24</text>
</g>
<!-- 47&#45;&gt;24 -->
<g id="edge73" class="edge"><title>47&#45;&gt;24</title>
<path fill="none" stroke="black" d="M473.252,-632.154C409.42,-588.634 202.17,-447.333 126.76,-395.92"/>
<polygon fill="black" stroke="black" points="128.47,-392.85 118.236,-390.108 124.527,-398.633 128.47,-392.85"/>
</g>
<!-- 39 -->
<g id="node44" class="node"><title>39</title>
<ellipse fill="none" stroke="black" cx="662.205" cy="-461.883" rx="27" ry="18"/>
<text text-anchor="middle" x="662.205" y="-457.683" font-family="Times,serif" font-size="14.00">39</text>
</g>
<!-- 48&#45;&gt;39 -->
<g id="edge75" class="edge"><title>48&#45;&gt;39</title>
<path fill="none" stroke="black" d="M566.503,-512.678C584.756,-502.99 611.336,-488.882 631.855,-477.992"/>
<polygon fill="black" stroke="black" points="633.612,-481.021 640.804,-473.242 630.33,-474.838 633.612,-481.021"/>
</g>
<!-- 4 -->
<g id="node5" class="node"><title>4</title>
<ellipse fill="none" stroke="black" cx="531" cy="-127.578" rx="27" ry="18"/>
<text text-anchor="middle" x="531" y="-123.378" font-family="Times,serif" font-size="14.00">4</text>
</g>
<!-- 41 -->
<g id="node6" class="node"><title>41</title>
<ellipse fill="none" stroke="black" cx="545.339" cy="-230.076" rx="27" ry="18"/>
<text text-anchor="middle" x="545.339" y="-225.876" font-family="Times,serif" font-size="14.00">41</text>
</g>
<!-- 4&#45;&gt;41 -->
<g id="edge4" class="edge"><title>4&#45;&gt;41</title>
<path fill="none" stroke="black" d="M533.564,-145.903C535.735,-161.426 538.884,-183.937 541.38,-201.775"/>
<polygon fill="black" stroke="black" points="537.946,-202.492 542.798,-211.91 544.879,-201.522 537.946,-202.492"/>
</g>
<!-- 43 -->
<g id="node23" class="node"><title>43</title>
<ellipse fill="none" stroke="black" cx="439.609" cy="-242.948" rx="27" ry="18"/>
<text text-anchor="middle" x="439.609" y="-238.748" font-family="Times,serif" font-size="14.00">43</text>
</g>
<!-- 41&#45;&gt;43 -->
<g id="edge60" class="edge"><title>41&#45;&gt;43</title>
<path fill="none" stroke="black" d="M518.659,-233.324C505.887,-234.879 490.386,-236.766 476.507,-238.456"/>
<polygon fill="black" stroke="black" points="475.784,-235.018 466.281,-239.701 476.63,-241.966 475.784,-235.018"/>
</g>
<!-- 7 -->
<g id="node8" class="node"><title>7</title>
<ellipse fill="none" stroke="black" cx="703.678" cy="-83.1587" rx="27" ry="18"/>
<text text-anchor="middle" x="703.678" y="-78.9587" font-family="Times,serif" font-size="14.00">7</text>
</g>
<!-- 2 -->
<g id="node9" class="node"><title>2</title>
<ellipse fill="none" stroke="black" cx="650.899" cy="-132.131" rx="27" ry="18"/>
<text text-anchor="middle" x="650.899" y="-127.931" font-family="Times,serif" font-size="14.00">2</text>
</g>
<!-- 7&#45;&gt;2 -->
<g id="edge6" class="edge"><title>7&#45;&gt;2</title>
<path fill="none" stroke="black" d="M687.843,-97.8521C683.563,-101.823 678.84,-106.205 674.243,-110.471"/>
<polygon fill="black" stroke="black" points="671.673,-108.081 666.723,-117.448 676.434,-113.212 671.673,-108.081"/>
</g>
<!-- 9 -->
<g id="node10" class="node"><title>9</title>
<ellipse fill="none" stroke="black" cx="370.978" cy="-447.188" rx="27" ry="18"/>
<text text-anchor="middle" x="370.978" y="-442.988" font-family="Times,serif" font-size="14.00">9</text>
</g>
<!-- 29 -->
<g id="node11" class="node"><title>29</title>
<ellipse fill="none" stroke="black" cx="354.957" cy="-517.383" rx="27" ry="18"/>
<text text-anchor="middle" x="354.957" y="-513.183" font-family="Times,serif" font-size="14.00">29</text>
</g>
<!-- 9&#45;&gt;29 -->
<g id="edge7" class="edge"><title>9&#45;&gt;29</title>
<path fill="none" stroke="black" d="M366.853,-465.265C365.184,-472.577 363.218,-481.189 361.37,-489.284"/>
<polygon fill="black" stroke="black" points="357.938,-488.595 359.125,-499.123 364.762,-490.153 357.938,-488.595"/>
</g>
<!-- 31 -->
<g id="node12" class="node"><title>31</title>
<ellipse fill="none" stroke="black" cx="387" cy="-376.993" rx="27" ry="18"/>
<text text-anchor="middle" x="387" y="-372.793" font-family="Times,serif" font-size="14.00">31</text>
</g>
<!-- 9&#45;&gt;31 -->
<g id="edge8" class="edge"><title>9&#45;&gt;31</title>
<path fill="none" stroke="black" d="M375.104,-429.111C376.773,-421.799 378.739,-413.187 380.587,-405.092"/>
<polygon fill="black" stroke="black" points="384.019,-405.781 382.832,-395.253 377.195,-404.223 384.019,-405.781"/>
</g>
<!-- 29&#45;&gt;48 -->
<g id="edge43" class="edge"><title>29&#45;&gt;48</title>
<path fill="none" stroke="black" d="M382.234,-518.318C415.174,-519.448 470.753,-521.353 507.742,-522.622"/>
<polygon fill="black" stroke="black" points="507.999,-526.132 518.113,-522.977 508.239,-519.136 507.999,-526.132"/>
</g>
<!-- 10 -->
<g id="node37" class="node"><title>10</title>
<ellipse fill="none" stroke="black" cx="370.858" cy="-592.389" rx="27" ry="18"/>
<text text-anchor="middle" x="370.858" y="-588.189" font-family="Times,serif" font-size="14.00">10</text>
</g>
<!-- 29&#45;&gt;10 -->
<g id="edge42" class="edge"><title>29&#45;&gt;10</title>
<path fill="none" stroke="black" d="M358.806,-535.54C360.642,-544.2 362.88,-554.756 364.927,-564.41"/>
<polygon fill="black" stroke="black" points="361.547,-565.343 367.044,-574.4 368.394,-563.891 361.547,-565.343"/>
</g>
<!-- 11 -->
<g id="node13" class="node"><title>11</title>
<ellipse fill="none" stroke="black" cx="255.477" cy="-712.108" rx="27" ry="18"/>
<text text-anchor="middle" x="255.477" y="-707.908" font-family="Times,serif" font-size="14.00">11</text>
</g>
<!-- 11&#45;&gt;22 -->
<g id="edge9" class="edge"><title>11&#45;&gt;22</title>
<path fill="none" stroke="black" d="M282.578,-710.077C338.387,-705.895 466.223,-696.315 529.752,-691.554"/>
<polygon fill="black" stroke="black" points="530.03,-695.043 539.74,-690.805 529.507,-688.063 530.03,-695.043"/>
</g>
<!-- 22&#45;&gt;6 -->
<g id="edge29" class="edge"><title>22&#45;&gt;6</title>
<path fill="none" stroke="black" d="M584.384,-674.899C596.308,-665.39 612.321,-652.62 625.647,-641.993"/>
<polygon fill="black" stroke="black" points="627.901,-644.672 633.537,-635.701 623.537,-639.199 627.901,-644.672"/>
</g>
<!-- 13 -->
<g id="node32" class="node"><title>13</title>
<ellipse fill="none" stroke="black" cx="467.108" cy="-26.0193" rx="27" ry="18"/>
<text text-anchor="middle" x="467.108" y="-21.8193" font-family="Times,serif" font-size="14.00">13</text>
</g>
<!-- 22&#45;&gt;13 -->
<g id="edge30" class="edge"><title>22&#45;&gt;13</title>
<path fill="none" stroke="black" d="M564.276,-670.692C550.477,-579.14 488.278,-166.475 471.364,-54.2612"/>
<polygon fill="black" stroke="black" points="474.78,-53.4403 469.829,-44.0736 467.858,-54.4836 474.78,-53.4403"/>
</g>
<!-- 12 -->
<g id="node15" class="node"><title>12</title>
<ellipse fill="none" stroke="black" cx="281.782" cy="-108.902" rx="27" ry="18"/>
<text text-anchor="middle" x="281.782" y="-104.702" font-family="Times,serif" font-size="14.00">12</text>
</g>
<!-- 5 -->
<g id="node16" class="node"><title>5</title>
<ellipse fill="none" stroke="black" cx="111.795" cy="-461.883" rx="27" ry="18"/>
<text text-anchor="middle" x="111.795" y="-457.683" font-family="Times,serif" font-size="14.00">5</text>
</g>
<!-- 12&#45;&gt;5 -->
<g id="edge10" class="edge"><title>12&#45;&gt;5</title>
<path fill="none" stroke="black" d="M273.352,-126.406C245.704,-183.817 157.659,-366.645 124.548,-435.401"/>
<polygon fill="black" stroke="black" points="121.261,-434.161 120.075,-444.689 127.567,-437.198 121.261,-434.161"/>
</g>
<!-- 14 -->
<g id="node17" class="node"><title>14</title>
<ellipse fill="none" stroke="black" cx="268.022" cy="-295.875" rx="27" ry="18"/>
<text text-anchor="middle" x="268.022" y="-291.675" font-family="Times,serif" font-size="14.00">14</text>
</g>
<!-- 14&#45;&gt;48 -->
<g id="edge11" class="edge"><title>14&#45;&gt;48</title>
<path fill="none" stroke="black" d="M285.369,-310.14C332.74,-349.092 464.458,-457.403 520.059,-503.123"/>
<polygon fill="black" stroke="black" points="518.051,-506.003 527.998,-509.651 522.497,-500.597 518.051,-506.003"/>
</g>
<!-- 16 -->
<g id="node18" class="node"><title>16</title>
<ellipse fill="none" stroke="black" cx="243" cy="-626.409" rx="27" ry="18"/>
<text text-anchor="middle" x="243" y="-622.209" font-family="Times,serif" font-size="14.00">16</text>
</g>
<!-- 16&#45;&gt;3 -->
<g id="edge12" class="edge"><title>16&#45;&gt;3</title>
<path fill="none" stroke="black" d="M269.402,-622.429C332.063,-612.985 489.865,-589.2 561.605,-578.387"/>
<polygon fill="black" stroke="black" points="562.177,-581.84 571.544,-576.889 561.134,-574.918 562.177,-581.84"/>
</g>
<!-- 16&#45;&gt;41 -->
<g id="edge16" class="edge"><title>16&#45;&gt;41</title>
<path fill="none" stroke="black" d="M255.606,-609.883C302.966,-547.8 470.412,-328.297 526.714,-254.492"/>
<polygon fill="black" stroke="black" points="529.731,-256.308 533.013,-246.234 524.165,-252.062 529.731,-256.308"/>
</g>
<!-- 16&#45;&gt;11 -->
<g id="edge13" class="edge"><title>16&#45;&gt;11</title>
<path fill="none" stroke="black" d="M245.646,-644.583C247.3,-655.945 249.466,-670.819 251.343,-683.714"/>
<polygon fill="black" stroke="black" points="247.931,-684.568 252.835,-693.96 254.858,-683.56 247.931,-684.568"/>
</g>
<!-- 32 -->
<g id="node19" class="node"><title>32</title>
<ellipse fill="none" stroke="black" cx="162.544" cy="-658.453" rx="27" ry="18"/>
<text text-anchor="middle" x="162.544" y="-654.253" font-family="Times,serif" font-size="14.00">32</text>
</g>
<!-- 16&#45;&gt;32 -->
<g id="edge14" class="edge"><title>16&#45;&gt;32</title>
<path fill="none" stroke="black" d="M219.729,-635.677C212.057,-638.733 203.377,-642.19 195.141,-645.47"/>
<polygon fill="black" stroke="black" points="193.758,-642.253 185.763,-649.205 196.348,-648.756 193.758,-642.253"/>
</g>
<!-- 38 -->
<g id="node20" class="node"><title>38</title>
<ellipse fill="none" stroke="black" cx="252.326" cy="-545.869" rx="27" ry="18"/>
<text text-anchor="middle" x="252.326" y="-541.669" font-family="Times,serif" font-size="14.00">38</text>
</g>
<!-- 16&#45;&gt;38 -->
<g id="edge15" class="edge"><title>16&#45;&gt;38</title>
<path fill="none" stroke="black" d="M245.116,-608.133C246.273,-598.144 247.731,-585.552 249.033,-574.309"/>
<polygon fill="black" stroke="black" points="252.545,-574.409 250.218,-564.072 245.591,-573.603 252.545,-574.409"/>
</g>
<!-- 44 -->
<g id="node21" class="node"><title>44</title>
<ellipse fill="none" stroke="black" cx="173.413" cy="-409.186" rx="27" ry="18"/>
<text text-anchor="middle" x="173.413" y="-404.986" font-family="Times,serif" font-size="14.00">44</text>
</g>
<!-- 16&#45;&gt;44 -->
<g id="edge17" class="edge"><title>16&#45;&gt;44</title>
<path fill="none" stroke="black" d="M237.305,-608.632C225.169,-570.749 196.688,-481.841 182.204,-436.629"/>
<polygon fill="black" stroke="black" points="185.472,-435.359 179.088,-426.904 178.806,-437.495 185.472,-435.359"/>
</g>
<!-- 38&#45;&gt;29 -->
<g id="edge56" class="edge"><title>38&#45;&gt;29</title>
<path fill="none" stroke="black" d="M277.433,-538.901C290.23,-535.348 306.001,-530.971 319.97,-527.094"/>
<polygon fill="black" stroke="black" points="321.055,-530.425 329.754,-524.378 319.182,-523.68 321.055,-530.425"/>
</g>
<!-- 25 -->
<g id="node34" class="node"><title>25</title>
<ellipse fill="none" stroke="black" cx="338.935" cy="-166.409" rx="27" ry="18"/>
<text text-anchor="middle" x="338.935" y="-162.209" font-family="Times,serif" font-size="14.00">25</text>
</g>
<!-- 38&#45;&gt;25 -->
<g id="edge55" class="edge"><title>38&#45;&gt;25</title>
<path fill="none" stroke="black" d="M256.445,-527.822C270.351,-466.896 315.632,-268.509 332.514,-194.545"/>
<polygon fill="black" stroke="black" points="335.978,-195.094 334.791,-184.566 329.154,-193.537 335.978,-195.094"/>
</g>
<!-- 44&#45;&gt;29 -->
<g id="edge71" class="edge"><title>44&#45;&gt;29</title>
<path fill="none" stroke="black" d="M193.885,-421.388C226.114,-440.595 288.806,-477.959 325.754,-499.979"/>
<polygon fill="black" stroke="black" points="324.177,-503.113 334.559,-505.226 327.761,-497.1 324.177,-503.113"/>
</g>
<!-- 44&#45;&gt;5 -->
<g id="edge69" class="edge"><title>44&#45;&gt;5</title>
<path fill="none" stroke="black" d="M156.575,-423.586C150.326,-428.93 143.104,-435.107 136.309,-440.918"/>
<polygon fill="black" stroke="black" points="133.937,-438.341 128.612,-447.501 138.487,-443.661 133.937,-438.341"/>
</g>
<!-- 44&#45;&gt;24 -->
<g id="edge70" class="edge"><title>44&#45;&gt;24</title>
<path fill="none" stroke="black" d="M150.682,-399.353C144.537,-396.694 137.767,-393.765 131.209,-390.928"/>
<polygon fill="black" stroke="black" points="132.415,-387.636 121.848,-386.878 129.636,-394.061 132.415,-387.636"/>
</g>
<!-- 17 -->
<g id="node22" class="node"><title>17</title>
<ellipse fill="none" stroke="black" cx="600.587" cy="-344.8" rx="27" ry="18"/>
<text text-anchor="middle" x="600.587" y="-340.6" font-family="Times,serif" font-size="14.00">17</text>
</g>
<!-- 17&#45;&gt;41 -->
<g id="edge18" class="edge"><title>17&#45;&gt;41</title>
<path fill="none" stroke="black" d="M592.196,-327.376C583.098,-308.484 568.474,-278.116 557.983,-256.331"/>
<polygon fill="black" stroke="black" points="561.12,-254.779 553.628,-247.288 554.814,-257.817 561.12,-254.779"/>
</g>
<!-- 17&#45;&gt;43 -->
<g id="edge19" class="edge"><title>17&#45;&gt;43</title>
<path fill="none" stroke="black" d="M580.848,-332.311C552.607,-314.443 500.512,-281.481 468.095,-260.971"/>
<polygon fill="black" stroke="black" points="469.832,-257.928 459.51,-255.539 466.089,-263.843 469.832,-257.928"/>
</g>
<!-- 43&#45;&gt;25 -->
<g id="edge68" class="edge"><title>43&#45;&gt;25</title>
<path fill="none" stroke="black" d="M421.611,-229.264C405.863,-217.292 382.793,-199.752 365.021,-186.241"/>
<polygon fill="black" stroke="black" points="366.857,-183.24 356.778,-179.974 362.62,-188.812 366.857,-183.24"/>
</g>
<!-- 43&#45;&gt;10 -->
<g id="edge67" class="edge"><title>43&#45;&gt;10</title>
<path fill="none" stroke="black" d="M436.01,-261.243C424.732,-318.562 390.03,-494.942 376.419,-564.126"/>
<polygon fill="black" stroke="black" points="372.919,-563.787 374.422,-574.275 379.787,-565.139 372.919,-563.787"/>
</g>
<!-- 18 -->
<g id="node24" class="node"><title>18</title>
<ellipse fill="none" stroke="black" cx="814.175" cy="-441.38" rx="27" ry="18"/>
<text text-anchor="middle" x="814.175" y="-437.18" font-family="Times,serif" font-size="14.00">18</text>
</g>
<!-- 18&#45;&gt;6 -->
<g id="edge20" class="edge"><title>18&#45;&gt;6</title>
<path fill="none" stroke="black" d="M799.971,-457.08C771.191,-488.892 705.865,-561.1 672.055,-598.471"/>
<polygon fill="black" stroke="black" points="669.067,-596.556 664.954,-606.32 674.258,-601.253 669.067,-596.556"/>
</g>
<!-- 15 -->
<g id="node25" class="node"><title>15</title>
<ellipse fill="none" stroke="black" cx="360.097" cy="-18" rx="27" ry="18"/>
<text text-anchor="middle" x="360.097" y="-13.8" font-family="Times,serif" font-size="14.00">15</text>
</g>
<!-- 18&#45;&gt;15 -->
<g id="edge21" class="edge"><title>18&#45;&gt;15</title>
<path fill="none" stroke="black" d="M798.28,-426.56C730.445,-363.31 464.946,-115.761 383.792,-40.0927"/>
<polygon fill="black" stroke="black" points="385.799,-37.1789 376.098,-32.9192 381.025,-42.2987 385.799,-37.1789"/>
</g>
<!-- 21 -->
<g id="node26" class="node"><title>21</title>
<ellipse fill="none" stroke="black" cx="885.371" cy="-452.111" rx="27" ry="18"/>
<text text-anchor="middle" x="885.371" y="-447.911" font-family="Times,serif" font-size="14.00">21</text>
</g>
<!-- 18&#45;&gt;21 -->
<g id="edge22" class="edge"><title>18&#45;&gt;21</title>
<path fill="none" stroke="black" d="M840.686,-445.375C843.246,-445.761 845.873,-446.157 848.509,-446.555"/>
<polygon fill="black" stroke="black" points="848.19,-450.046 858.6,-448.076 849.234,-443.124 848.19,-450.046"/>
</g>
<!-- 19 -->
<g id="node27" class="node"><title>19</title>
<ellipse fill="none" stroke="black" cx="27" cy="-376.993" rx="27" ry="18"/>
<text text-anchor="middle" x="27" y="-372.793" font-family="Times,serif" font-size="14.00">19</text>
</g>
<!-- 19&#45;&gt;24 -->
<g id="edge23" class="edge"><title>19&#45;&gt;24</title>
<path fill="none" stroke="black" d="M54.2201,-376.993C56.6393,-376.993 59.1149,-376.993 61.5994,-376.993"/>
<polygon fill="black" stroke="black" points="61.7414,-380.493 71.7414,-376.993 61.7414,-373.493 61.7414,-380.493"/>
</g>
<!-- 37 -->
<g id="node29" class="node"><title>37</title>
<ellipse fill="none" stroke="black" cx="742.979" cy="-430.649" rx="27" ry="18"/>
<text text-anchor="middle" x="742.979" y="-426.449" font-family="Times,serif" font-size="14.00">37</text>
</g>
<!-- 19&#45;&gt;37 -->
<g id="edge24" class="edge"><title>19&#45;&gt;37</title>
<path fill="none" stroke="black" d="M54.1929,-379.031C164.518,-387.299 578.863,-418.35 705.79,-427.862"/>
<polygon fill="black" stroke="black" points="705.907,-431.38 716.141,-428.637 706.431,-424.4 705.907,-431.38"/>
</g>
<!-- 40 -->
<g id="node30" class="node"><title>40</title>
<ellipse fill="none" stroke="black" cx="711.349" cy="-533.192" rx="27" ry="18"/>
<text text-anchor="middle" x="711.349" y="-528.992" font-family="Times,serif" font-size="14.00">40</text>
</g>
<!-- 19&#45;&gt;40 -->
<g id="edge25" class="edge"><title>19&#45;&gt;40</title>
<path fill="none" stroke="black" d="M52.5783,-382.831C157.382,-406.752 554.162,-497.315 675.728,-525.061"/>
<polygon fill="black" stroke="black" points="675.114,-528.511 685.642,-527.324 676.672,-521.687 675.114,-528.511"/>
</g>
<!-- 24&#45;&gt;35 -->
<g id="edge33" class="edge"><title>24&#45;&gt;35</title>
<path fill="none" stroke="black" d="M107.329,-359.699C126.172,-320.569 172.182,-225.03 194.657,-178.359"/>
<polygon fill="black" stroke="black" points="197.892,-179.708 199.078,-169.179 191.586,-176.671 197.892,-179.708"/>
</g>
<!-- 37&#45;&gt;18 -->
<g id="edge53" class="edge"><title>37&#45;&gt;18</title>
<path fill="none" stroke="black" d="M769.49,-434.644C772.05,-435.03 774.677,-435.426 777.313,-435.824"/>
<polygon fill="black" stroke="black" points="776.995,-439.315 787.405,-437.345 778.038,-432.393 776.995,-439.315"/>
</g>
<!-- 37&#45;&gt;39 -->
<g id="edge54" class="edge"><title>37&#45;&gt;39</title>
<path fill="none" stroke="black" d="M719.616,-439.683C711.98,-442.635 703.351,-445.972 695.147,-449.145"/>
<polygon fill="black" stroke="black" points="693.86,-445.89 685.796,-452.761 696.385,-452.418 693.86,-445.89"/>
</g>
<!-- 40&#45;&gt;32 -->
<g id="edge57" class="edge"><title>40&#45;&gt;32</title>
<path fill="none" stroke="black" d="M685.615,-539.065C596.492,-559.407 300.865,-626.882 198.11,-650.335"/>
<polygon fill="black" stroke="black" points="197.192,-646.954 188.222,-652.592 198.75,-653.779 197.192,-646.954"/>
</g>
<!-- 34 -->
<g id="node40" class="node"><title>34</title>
<ellipse fill="none" stroke="black" cx="646.479" cy="-252.035" rx="27" ry="18"/>
<text text-anchor="middle" x="646.479" y="-247.835" font-family="Times,serif" font-size="14.00">34</text>
</g>
<!-- 40&#45;&gt;34 -->
<g id="edge58" class="edge"><title>40&#45;&gt;34</title>
<path fill="none" stroke="black" d="M707.192,-515.176C696.162,-467.369 666.092,-337.042 652.866,-279.718"/>
<polygon fill="black" stroke="black" points="656.26,-278.857 650.601,-269.9 649.439,-280.431 656.26,-278.857"/>
</g>
<!-- 40&#45;&gt;39 -->
<g id="edge59" class="edge"><title>40&#45;&gt;39</title>
<path fill="none" stroke="black" d="M699.951,-516.653C693.81,-507.743 686.111,-496.571 679.271,-486.646"/>
<polygon fill="black" stroke="black" points="682.098,-484.58 673.541,-478.332 676.334,-488.552 682.098,-484.58"/>
</g>
<!-- 20 -->
<g id="node31" class="node"><title>20</title>
<ellipse fill="none" stroke="black" cx="403.022" cy="-306.799" rx="27" ry="18"/>
<text text-anchor="middle" x="403.022" y="-302.599" font-family="Times,serif" font-size="14.00">20</text>
</g>
<!-- 20&#45;&gt;31 -->
<g id="edge27" class="edge"><title>20&#45;&gt;31</title>
<path fill="none" stroke="black" d="M398.896,-324.875C397.227,-332.187 395.261,-340.8 393.413,-348.894"/>
<polygon fill="black" stroke="black" points="389.981,-348.206 391.168,-358.734 396.805,-349.763 389.981,-348.206"/>
</g>
<!-- 20&#45;&gt;14 -->
<g id="edge26" class="edge"><title>20&#45;&gt;14</title>
<path fill="none" stroke="black" d="M376.027,-304.614C355.7,-302.97 327.598,-300.696 305.154,-298.88"/>
<polygon fill="black" stroke="black" points="305.219,-295.374 294.97,-298.056 304.655,-302.351 305.219,-295.374"/>
</g>
<!-- 20&#45;&gt;43 -->
<g id="edge28" class="edge"><title>20&#45;&gt;43</title>
<path fill="none" stroke="black" d="M412.826,-289.688C416.435,-283.389 420.611,-276.103 424.575,-269.184"/>
<polygon fill="black" stroke="black" points="427.842,-270.522 429.777,-260.106 421.769,-267.042 427.842,-270.522"/>
</g>
<!-- 23 -->
<g id="node33" class="node"><title>23</title>
<ellipse fill="none" stroke="black" cx="598.119" cy="-181.104" rx="27" ry="18"/>
<text text-anchor="middle" x="598.119" y="-176.904" font-family="Times,serif" font-size="14.00">23</text>
</g>
<!-- 23&#45;&gt;41 -->
<g id="edge32" class="edge"><title>23&#45;&gt;41</title>
<path fill="none" stroke="black" d="M582.283,-195.797C578.004,-199.768 573.281,-204.15 568.683,-208.416"/>
<polygon fill="black" stroke="black" points="566.114,-206.026 561.164,-215.393 570.875,-211.157 566.114,-206.026"/>
</g>
<!-- 23&#45;&gt;2 -->
<g id="edge31" class="edge"><title>23&#45;&gt;2</title>
<path fill="none" stroke="black" d="M613.955,-166.41C618.234,-162.439 622.957,-158.057 627.555,-153.791"/>
<polygon fill="black" stroke="black" points="630.124,-156.182 635.074,-146.814 625.363,-151.05 630.124,-156.182"/>
</g>
<!-- 25&#45;&gt;35 -->
<g id="edge36" class="edge"><title>25&#45;&gt;35</title>
<path fill="none" stroke="black" d="M312.007,-163.423C292.506,-161.26 265.905,-158.31 244.414,-155.927"/>
<polygon fill="black" stroke="black" points="244.652,-152.432 234.327,-154.808 243.881,-159.389 244.652,-152.432"/>
</g>
<!-- 25&#45;&gt;12 -->
<g id="edge35" class="edge"><title>25&#45;&gt;12</title>
<path fill="none" stroke="black" d="M323.919,-151.3C317.929,-145.272 310.903,-138.203 304.325,-131.584"/>
<polygon fill="black" stroke="black" points="306.428,-128.735 296.896,-124.11 301.463,-133.67 306.428,-128.735"/>
</g>
<!-- 25&#45;&gt;5 -->
<g id="edge34" class="edge"><title>25&#45;&gt;5</title>
<path fill="none" stroke="black" d="M326.4,-182.716C288.549,-231.954 175.274,-379.306 130.399,-437.682"/>
<polygon fill="black" stroke="black" points="127.612,-435.565 124.292,-445.626 133.161,-439.831 127.612,-435.565"/>
</g>
<!-- 26 -->
<g id="node35" class="node"><title>26</title>
<ellipse fill="none" stroke="black" cx="229.173" cy="-779.131" rx="27" ry="18"/>
<text text-anchor="middle" x="229.173" y="-774.931" font-family="Times,serif" font-size="14.00">26</text>
</g>
<!-- 26&#45;&gt;11 -->
<g id="edge37" class="edge"><title>26&#45;&gt;11</title>
<path fill="none" stroke="black" d="M236.084,-761.521C238.751,-754.726 241.864,-746.794 244.805,-739.3"/>
<polygon fill="black" stroke="black" points="248.125,-740.42 248.521,-729.832 241.609,-737.863 248.125,-740.42"/>
</g>
<!-- 27 -->
<g id="node36" class="node"><title>27</title>
<ellipse fill="none" stroke="black" cx="365.478" cy="-664.188" rx="27" ry="18"/>
<text text-anchor="middle" x="365.478" y="-659.988" font-family="Times,serif" font-size="14.00">27</text>
</g>
<!-- 27&#45;&gt;41 -->
<g id="edge40" class="edge"><title>27&#45;&gt;41</title>
<path fill="none" stroke="black" d="M372.751,-646.633C400.574,-579.48 500.379,-338.591 534.109,-257.18"/>
<polygon fill="black" stroke="black" points="537.381,-258.428 537.975,-247.85 530.914,-255.749 537.381,-258.428"/>
</g>
<!-- 27&#45;&gt;25 -->
<g id="edge39" class="edge"><title>27&#45;&gt;25</title>
<path fill="none" stroke="black" d="M364.517,-646.178C360.539,-571.56 345.329,-286.311 340.451,-194.826"/>
<polygon fill="black" stroke="black" points="343.936,-194.457 339.908,-184.657 336.946,-194.829 343.936,-194.457"/>
</g>
<!-- 27&#45;&gt;10 -->
<g id="edge38" class="edge"><title>27&#45;&gt;10</title>
<path fill="none" stroke="black" d="M366.835,-646.07C367.411,-638.391 368.095,-629.26 368.735,-620.727"/>
<polygon fill="black" stroke="black" points="372.225,-620.985 369.482,-610.751 365.245,-620.462 372.225,-620.985"/>
</g>
<!-- 28 -->
<g id="node38" class="node"><title>28</title>
<ellipse fill="none" stroke="black" cx="467.108" cy="-727.967" rx="27" ry="18"/>
<text text-anchor="middle" x="467.108" y="-723.767" font-family="Times,serif" font-size="14.00">28</text>
</g>
<!-- 28&#45;&gt;47 -->
<g id="edge41" class="edge"><title>28&#45;&gt;47</title>
<path fill="none" stroke="black" d="M472.556,-709.983C475.869,-699.048 480.167,-684.863 483.899,-672.545"/>
<polygon fill="black" stroke="black" points="487.317,-673.335 486.866,-662.749 480.617,-671.305 487.317,-673.335"/>
</g>
<!-- 30 -->
<g id="node39" class="node"><title>30</title>
<ellipse fill="none" stroke="black" cx="149.043" cy="-539.23" rx="27" ry="18"/>
<text text-anchor="middle" x="149.043" y="-535.03" font-family="Times,serif" font-size="14.00">30</text>
</g>
<!-- 30&#45;&gt;38 -->
<g id="edge44" class="edge"><title>30&#45;&gt;38</title>
<path fill="none" stroke="black" d="M176.18,-540.974C188.158,-541.744 202.427,-542.661 215.357,-543.492"/>
<polygon fill="black" stroke="black" points="215.167,-546.987 225.371,-544.136 215.616,-540.002 215.167,-546.987"/>
</g>
<!-- 34&#45;&gt;41 -->
<g id="edge49" class="edge"><title>34&#45;&gt;41</title>
<path fill="none" stroke="black" d="M620.695,-246.437C608.689,-243.83 594.205,-240.685 581.157,-237.853"/>
<polygon fill="black" stroke="black" points="581.591,-234.365 571.076,-235.664 580.105,-241.206 581.591,-234.365"/>
</g>
<!-- 34&#45;&gt;35 -->
<g id="edge48" class="edge"><title>34&#45;&gt;35</title>
<path fill="none" stroke="black" d="M620.654,-246.14C545.85,-229.067 328.902,-179.55 243.031,-159.951"/>
<polygon fill="black" stroke="black" points="243.756,-156.526 233.228,-157.713 242.198,-163.35 243.756,-156.526"/>
</g>
<!-- 34&#45;&gt;24 -->
<g id="edge47" class="edge"><title>34&#45;&gt;24</title>
<path fill="none" stroke="black" d="M620.807,-257.894C531.9,-278.187 236.988,-345.499 134.481,-368.895"/>
<polygon fill="black" stroke="black" points="133.587,-365.509 124.616,-371.147 135.144,-372.334 133.587,-365.509"/>
</g>
<!-- 34&#45;&gt;23 -->
<g id="edge46" class="edge"><title>34&#45;&gt;23</title>
<path fill="none" stroke="black" d="M635.263,-235.584C629.367,-226.935 622.01,-216.146 615.404,-206.456"/>
<polygon fill="black" stroke="black" points="618.135,-204.249 609.61,-197.958 612.352,-208.192 618.135,-204.249"/>
</g>
<!-- 8 -->
<g id="node41" class="node"><title>8</title>
<ellipse fill="none" stroke="black" cx="711.349" cy="-220.795" rx="27" ry="18"/>
<text text-anchor="middle" x="711.349" y="-216.595" font-family="Times,serif" font-size="14.00">8</text>
</g>
<!-- 34&#45;&gt;8 -->
<g id="edge45" class="edge"><title>34&#45;&gt;8</title>
<path fill="none" stroke="black" d="M668.441,-241.459C672.245,-239.626 676.265,-237.691 680.257,-235.768"/>
<polygon fill="black" stroke="black" points="681.918,-238.853 689.409,-231.361 678.881,-232.546 681.918,-238.853"/>
</g>
<!-- 42 -->
<g id="node42" class="node"><title>42</title>
<ellipse fill="none" stroke="black" cx="408.522" cy="-89.7987" rx="27" ry="18"/>
<text text-anchor="middle" x="408.522" y="-85.5987" font-family="Times,serif" font-size="14.00">42</text>
</g>
<!-- 34&#45;&gt;42 -->
<g id="edge50" class="edge"><title>34&#45;&gt;42</title>
<path fill="none" stroke="black" d="M627.408,-239.033C585.464,-210.435 485.054,-141.977 436.184,-108.658"/>
<polygon fill="black" stroke="black" points="437.918,-105.604 427.684,-102.863 433.975,-111.388 437.918,-105.604"/>
</g>
<!-- 42&#45;&gt;22 -->
<g id="edge64" class="edge"><title>42&#45;&gt;22</title>
<path fill="none" stroke="black" d="M413.265,-107.724C435.821,-192.973 532.275,-557.52 559.7,-661.172"/>
<polygon fill="black" stroke="black" points="556.334,-662.135 562.276,-670.907 563.101,-660.344 556.334,-662.135"/>
</g>
<!-- 42&#45;&gt;5 -->
<g id="edge61" class="edge"><title>42&#45;&gt;5</title>
<path fill="none" stroke="black" d="M395.772,-105.787C348.977,-164.466 186.513,-368.189 130.754,-438.11"/>
<polygon fill="black" stroke="black" points="127.996,-435.954 124.498,-445.954 133.469,-440.318 127.996,-435.954"/>
</g>
<!-- 42&#45;&gt;15 -->
<g id="edge63" class="edge"><title>42&#45;&gt;15</title>
<path fill="none" stroke="black" d="M397.291,-73.1461C391.24,-64.1749 383.654,-52.9268 376.913,-42.933"/>
<polygon fill="black" stroke="black" points="379.761,-40.8957 371.268,-34.5622 373.958,-44.8099 379.761,-40.8957"/>
</g>
<!-- 42&#45;&gt;13 -->
<g id="edge62" class="edge"><title>42&#45;&gt;13</title>
<path fill="none" stroke="black" d="M422.704,-74.3595C429.653,-66.7949 438.163,-57.5297 445.868,-49.1419"/>
<polygon fill="black" stroke="black" points="448.462,-51.4917 452.649,-41.7594 443.307,-46.7563 448.462,-51.4917"/>
</g>
<!-- 42&#45;&gt;25 -->
<g id="edge65" class="edge"><title>42&#45;&gt;25</title>
<path fill="none" stroke="black" d="M394.44,-105.302C384.537,-116.205 371.113,-130.984 359.948,-143.276"/>
<polygon fill="black" stroke="black" points="357.129,-141.173 352.996,-150.929 362.311,-145.88 357.129,-141.173"/>
</g>
<!-- 42&#45;&gt;39 -->
<g id="edge66" class="edge"><title>42&#45;&gt;39</title>
<path fill="none" stroke="black" d="M419.75,-106.267C459.935,-165.207 596.771,-365.908 645.116,-436.818"/>
<polygon fill="black" stroke="black" points="642.294,-438.892 650.819,-445.183 648.078,-434.949 642.294,-438.892"/>
</g>
<!-- 36 -->
<g id="node43" class="node"><title>36</title>
<ellipse fill="none" stroke="black" cx="180.596" cy="-313.326" rx="27" ry="18"/>
<text text-anchor="middle" x="180.596" y="-309.126" font-family="Times,serif" font-size="14.00">36</text>
</g>
<!-- 36&#45;&gt;29 -->
<g id="edge52" class="edge"><title>36&#45;&gt;29</title>
<path fill="none" stroke="black" d="M193.989,-328.999C224.416,-364.609 298.891,-451.768 334.863,-493.866"/>
<polygon fill="black" stroke="black" points="332.362,-496.327 341.519,-501.656 337.684,-491.78 332.362,-496.327"/>
</g>
<!-- 36&#45;&gt;14 -->
<g id="edge51" class="edge"><title>36&#45;&gt;14</title>
<path fill="none" stroke="black" d="M206.827,-308.09C214.765,-306.506 223.624,-304.737 232.082,-303.049"/>
<polygon fill="black" stroke="black" points="232.99,-306.437 242.111,-301.047 231.619,-299.573 232.99,-306.437"/>
</g>
</g>
</svg>
